# xmcd
#
# Track frame offsets:
# 150
# 14747
# 35427
# 45595
# 58127
# 72495
# 84452
# 98250
# 113165
# 130817
# 146675
# 161120
# 175385
# 187020
# 200090
# 216522
# 227855
# 239175
#
# Disc length: 3387 seconds
#
#
# Revision: 0
# Processed by: cddbd v1.5.1PL2 Copyright (c) Steve Scherf et al.
# Submitted via: FreeRIP 2.944 
#
DISCID=170d3912
DTITLE=Various Artist - The Old Style Love Song 1 
DYEAR=1900
DGENRE=Oldies
TTITLE0=the exodus song
TTITLE1=my way
TTITLE2=the river of no return
TTITLE3=moon river
TTITLE4=love story
TTITLE5=tonight
TTITLE6=the godfather
TTITLE7=i don't know how to love him
TTITLE8=in the morning
TTITLE9=the way we were
TTITLE10=the sound of silence
TTITLE11=scarborough fair
TTITLE12=romeo and juliet
TTITLE13=raindrops keep falling on my head
TTITLE14=you light up my life
TTITLE15=the river kwai
TTITLE16=somewhere my love
TTITLE17=sunrise sunset
EXTD=
EXTT0=
EXTT1=
EXTT2=
EXTT3=
EXTT4=
EXTT5=
EXTT6=
EXTT7=
EXTT8=
EXTT9=
EXTT10=
EXTT11=
EXTT12=
EXTT13=
EXTT14=
EXTT15=
EXTT16=
EXTT17=
PLAYORDER=
